<svg id="Layer_1" data-name="Layer 1" xmlns="http://www.w3.org/2000/svg" viewBox="0 0 2048 2048"><defs><style>.cls-1{fill:#fefefe;}.cls-2{fill:#f27021;}</style></defs><path class="cls-1" d="M599.89,1623.87q-509.44,0-1018.87.13c-4.54,0-5-1.31-5-5.25Q-423.82,599.89-424-419c0-4.54,1.31-5,5.25-5Q600.11-423.82,1619-424c4.54,0,5,1.31,5,5.25q-.14,1018.86,0,2037.73c0,4.53-1.31,5-5.25,5Q1109.32,1623.81,599.89,1623.87ZM1419.62,604.4c-1.66-1.29-2.68-2.11-3.73-2.9l-72.3-54.36Q1238.32,468,1133,389.05c-3.91-2.93-4.45-5.75-3.81-10.07,4-27,7.85-54,11.68-81.07q9.3-65.54,18.52-131.06Q1169,98.6,1178.8,30.38c.84-5.88.76-5.84-5.07-5q-33.86,4.88-67.73,9.68-72.45,10.3-144.9,20.57c-45.33,6.44-90.68,12.79-136,19.51-5.17.77-7.67-.91-10.53-4.72Q708.77-70.71,602.81-211.75c-2.62-3.5-3.62-3.17-6,.07Q492.69-73,388.66,65.76c-5.66,7.58-10.6,10.13-20.22,8.6C327.71,67.92,286.8,62.54,246,56.74q-69-9.8-138-19.64c-27.52-3.92-55-7.88-82.58-11.72-2.25-.31-5.78-2.44-4.93,3.32q9.93,67.95,19.45,136Q55.13,272,70.42,379.29c.66,4.61-.31,7.1-4,9.86Q-75,495.08-216.14,601.27c-1.26,1-2.93,1.57-3.57,3.46L-175.39,638q121.47,91.26,243,182.46c2.49,1.86,3.71,3.5,3.21,6.93Q59.34,906.27,48.2,985.15,34.35,1082.57,20.49,1180c-.55,3.82.52,4.13,3.78,3.64,17.45-2.62,34.93-5.11,52.4-7.6q81.48-11.57,163-23.1c45-6.38,90-12.64,135-19.28,4.92-.72,7.34.65,10.15,4.4q101.88,136,204,271.76c3.54,4.72,7.15,9.39,11,14.41,14.67-19.5,29-38.51,43.29-57.54q86.44-115.07,172.82-230.18c2-2.73,4-3.52,7.45-3,43.5,6.32,87,12.39,130.55,18.57s87,12.42,130.54,18.62c30.33,4.32,60.66,8.58,91,13,3.24.47,4.14-.24,3.58-3.51-1.14-6.73-2-13.5-3-20.26q-11.22-79.38-22.44-158.75-12.18-85.8-24.55-171.57c-.63-4.39.26-7.17,4-10q114.4-85.67,228.6-171.62Z" transform="translate(424 424)"/><path class="cls-2" d="M1419.62,604.4l-58,43.55q-114.26,85.86-228.6,171.62c-3.78,2.83-4.67,5.61-4,10q12.4,85.77,24.55,171.57,11.28,79.36,22.44,158.75c1,6.76,1.83,13.53,3,20.26.56,3.27-.34,4-3.58,3.51-30.32-4.4-60.65-8.66-91-13q-65.28-9.3-130.54-18.62c-43.52-6.18-87-12.25-130.55-18.57-3.5-.51-5.4.28-7.45,3q-86.34,115.14-172.82,230.18c-14.3,19-28.62,38-43.29,57.54-3.83-5-7.44-9.69-11-14.41q-102-135.84-204-271.76c-2.81-3.75-5.23-5.12-10.15-4.4-45,6.64-90,12.9-135,19.28q-81.48,11.53-163,23.1c-17.47,2.49-34.95,5-52.4,7.6-3.26.49-4.33.18-3.78-3.64q14-97.41,27.71-194.84,11.22-78.87,22.59-157.72c.5-3.43-.72-5.07-3.21-6.93Q-53.95,729.33-175.39,638l-44.32-33.31c.64-1.89,2.31-2.51,3.57-3.46Q-74.91,495.15,66.42,389.15c3.69-2.76,4.66-5.25,4-9.86Q55,272,39.93,164.67q-9.64-68-19.45-136c-.85-5.76,2.68-3.63,4.93-3.32C53,29.22,80.47,33.18,108,37.1q69,9.82,138,19.64c40.84,5.8,81.75,11.18,122.48,17.62,9.62,1.53,14.56-1,20.22-8.6q103.72-139,208.1-277.44c2.43-3.24,3.43-3.57,6-.07Q708.64-70.62,814.6,70.42c2.86,3.81,5.36,5.49,10.53,4.72,45.29-6.72,90.64-13.07,136-19.51q72.45-10.29,144.9-20.57,33.87-4.82,67.73-9.68c5.83-.84,5.91-.88,5.07,5q-9.71,68.24-19.46,136.47-9.3,65.52-18.52,131.06c-3.83,27-7.67,54.06-11.68,81.07-.64,4.32-.1,7.14,3.81,10.07q105.46,78.87,210.64,158.09l72.3,54.36C1416.94,602.29,1418,603.11,1419.62,604.4ZM382.15,1130.06c9.64-11.24,18.05-23.43,26.93-35.24q93.45-124.18,186.73-248.48c3.86-5.15,3.92-5.17,7.79,0q105.23,140,210.44,280c1.08,1.45,1.78,3.38,4,4.29-.14-1.39-.19-2.39-.33-3.37q-5.87-41-11.74-82.07-9.19-64.77-18.31-129.57-9.88-69.72-19.91-139.43c-.54-3.72,0-4.43,3.85-3.87C810.35,778,849.09,783.46,887.83,789q72.43,10.31,144.88,20.59c31.13,4.42,62.27,8.81,94.8,13.41l-291-218.62,290.36-218.18c-2,0-2.47-.06-3,0q-79.35,11.32-158.71,22.67-95.43,13.57-190.88,27.08c-7.27,1-7.13,1.05-6.07-6.36q7.94-55.12,15.72-110.26,15.74-110.77,31.45-221.54c.91-6.4,1.78-12.81,2.66-19.22a9.93,9.93,0,0,0-3.61,3.26Q708.85,222.44,603.18,363.05c-3.37,4.5-3.38,4.49-6.82-.08q-51.63-68.72-103.28-137.42-55.24-73.49-110.52-147l-1-.85c-.41.59-.4,1.11.26,1.51.19,2.15.28,4.32.58,6.46Q390.18,140.6,398,195.48q9.27,65.28,18.52,130.56,7.62,53.65,15.34,107.29c.48,3.34-.72,3.41-3.48,3-13.67-2-27.37-3.86-41.05-5.8q-68.49-9.72-137-19.48-72.44-10.31-144.89-20.58C94.91,389,84.33,387.51,73.76,386l-.29.82,289.47,217.5L73.18,822.07c24.36-2.7,48.26-6.05,72.15-9.45q72.19-10.27,144.38-20.57c45.83-6.51,91.68-12.87,137.47-19.57,5.05-.74,5,.71,4.4,4.75q-10.41,71.92-20.53,143.89-10.77,75.9-21.48,151.82c-2.65,18.92-6,37.73-7.77,56.77-.5.26-.66.58-.17,1Z" transform="translate(424 424)"/><path class="cls-1" d="M382.56,78.58q55.26,73.49,110.52,147Q544.73,294.25,596.36,363c3.44,4.57,3.45,4.58,6.82.08Q708.86,222.44,814.51,81.81a9.93,9.93,0,0,1,3.61-3.26c-.88,6.41-1.75,12.82-2.66,19.22Q799.74,208.55,784,319.31q-7.83,55.13-15.72,110.26c-1.06,7.41-1.2,7.39,6.07,6.36q95.45-13.55,190.88-27.08,79.37-11.3,158.71-22.67c.49-.07,1,0,3,0L836.55,604.35l291,218.62c-32.53-4.6-63.67-9-94.8-13.41Q960.26,799.29,887.83,789c-38.74-5.51-77.48-11-116.19-16.62-3.85-.56-4.39.15-3.85,3.87q10.1,69.71,19.91,139.43,9.18,64.79,18.31,129.57,5.82,41,11.74,82.07c.14,1,.19,2,.33,3.37-2.26-.91-3-2.84-4-4.29q-105.25-140-210.44-280c-3.87-5.16-3.93-5.14-7.79,0q-93.34,124.24-186.73,248.48c-8.88,11.81-17.29,24-26.93,35.24l-.36-.36c1.75-19,5.13-37.84,7.78-56.76Q400.21,997,411.05,921.12q10.2-72,20.53-143.89c.58-4,.65-5.49-4.4-4.75-45.79,6.7-91.64,13.06-137.47,19.57q-72.19,10.25-144.38,20.57c-23.89,3.4-47.79,6.75-72.15,9.45L362.94,604.35,73.47,386.85l.29-.82c10.57,1.48,21.15,2.93,31.71,4.43Q177.92,400.74,250.36,411q68.49,9.73,137,19.48c13.68,1.94,27.38,3.76,41.05,5.8,2.76.42,4,.35,3.48-3Q424.1,379.69,416.53,326,407.25,260.76,398,195.48q-7.8-54.89-15.61-109.77c-.3-2.14-.39-4.31-.58-6.46C382.07,79,382.32,78.81,382.56,78.58Z" transform="translate(424 424)"/><path class="cls-1" d="M381.82,79.25c-.66-.4-.67-.92-.26-1.51l1,.85C382.32,78.81,382.07,79,381.82,79.25Z" transform="translate(424 424)"/><path class="cls-1" d="M382.15,1130.06l-.52.66c-.49-.43-.33-.75.17-1Z" transform="translate(424 424)"/></svg>