<svg id="Layer_1" data-name="Layer 1" xmlns="http://www.w3.org/2000/svg" viewBox="0 0 300 299"><defs><style>.cls-1{fill:#ec1d24;}.cls-2{fill:#fefdfd;}</style></defs><path class="cls-1" d="M616,748.92H583c-.73-1.64-2.29-1-3.49-1.17-55.7-6.91-115.21-51.9-127-122-.61-3.62-.21-7.53-2.47-10.79V582c2.05-1.72,1.41-4.27,1.78-6.41q9.51-54.17,51.07-90.12c1.33-1.15,2.82-4,4.8-2.06,1.49,1.43-1.51,2.4-2.1,3.84a20.06,20.06,0,0,1-2.18,3.85A118.25,118.25,0,0,0,482.72,545c-8.91,67.86,43.45,129.75,111.86,132.07,4.13.14,6.62-1.27,8.17-5,7.84-18.64,7-36.57-4.12-53.79-4.68-7.25-11-12.83-17.4-18.48-33-29.37-36.77-71.69-24.14-104C565,475.5,581.24,462.53,598,450.08h2c.2,2.81-1.25,5.12-2.32,7.53a56.47,56.47,0,0,0-4.08,33.66c2.61,14.39,10.26,25.67,21.48,34.9,28.55,23.49,38.82,53.92,33,90-3.7,23-16.4,40.69-34.07,55.22-1.9,1.56-4.37,2.66-5.58,5.52,40.6-3.34,72-21.91,92.42-56.37,27.53-46.52,21.54-92.26-8-136.73,4.64,1.39,7.5,4.21,10.27,6.92,21,20.59,36,44.75,42.75,73.6,1.54,6.53,2.68,13.15,4,19.73v31c-2.06,1.91-1.46,4.6-1.79,6.91-8.82,61.41-57.46,112.46-118.3,124.17C625.21,747,620.36,746.8,616,748.92Z" transform="translate(-450 -450)"/><path class="cls-2" d="M598,450.08c-16.76,12.45-33,25.42-40.91,45.73-12.63,32.32-8.85,74.64,24.14,104,6.35,5.65,12.72,11.23,17.4,18.48,11.13,17.22,12,35.15,4.12,53.79-1.55,3.7-4,5.11-8.17,5C526.17,674.74,473.81,612.85,482.72,545a118.25,118.25,0,0,1,20.73-53.88,20.06,20.06,0,0,0,2.18-3.85c.59-1.44,3.59-2.41,2.1-3.84-2-1.91-3.47.91-4.8,2.06q-41.67,35.89-51.07,90.12c-.37,2.14.27,4.69-1.78,6.41q0-64.11-.08-128.21c0-3.15.76-3.81,3.84-3.8Q525.92,450.17,598,450.08Z" transform="translate(-450 -450)"/><path class="cls-2" d="M749.92,584c-1.32-6.58-2.46-13.2-4-19.73-6.78-28.85-21.75-53-42.75-73.6-2.77-2.71-5.63-5.53-10.27-6.92,29.52,44.47,35.51,90.21,8,136.73-20.38,34.46-51.82,53-92.42,56.37,1.21-2.86,3.68-4,5.58-5.52,17.67-14.53,30.37-32.25,34.07-55.22,5.79-36-4.48-66.46-33-90-11.22-9.23-18.87-20.51-21.48-34.9a56.47,56.47,0,0,1,4.08-33.66c1.07-2.41,2.52-4.72,2.32-7.53q73.08,0,146.16-.08c3.08,0,3.85.65,3.84,3.81Q749.82,518.91,749.92,584Z" transform="translate(-450 -450)"/><path class="cls-2" d="M616,748.92c4.37-2.12,9.22-2,13.84-2.85,60.84-11.71,109.48-62.76,118.3-124.17.33-2.31-.27-5,1.79-6.91q0,65.1.08,130.19c0,3.12-.71,3.83-3.82,3.82Q681.08,748.82,616,748.92Z" transform="translate(-450 -450)"/><path class="cls-2" d="M450.08,615c2.26,3.26,1.86,7.17,2.47,10.79,11.76,70.07,71.27,115.06,127,122,1.2.14,2.76-.47,3.49,1.17q-64.59,0-129.19.08c-3.12,0-3.83-.71-3.82-3.82Q450.18,680.08,450.08,615Z" transform="translate(-450 -450)"/></svg>