<svg id="Layer_1" data-name="Layer 1" xmlns="http://www.w3.org/2000/svg" viewBox="0 0 280 280"><defs><style>.cls-1{fill:#fdfdfd;}.cls-2{fill:#231f21;}.cls-3{fill:#1bbde1;}</style></defs><path class="cls-1" d="M599.5,739.92q-68,0-135.92.08c-3,0-3.58-.6-3.58-3.58q.15-136.42,0-272.84c0-3,.6-3.58,3.58-3.58q136.43.15,272.84,0c3,0,3.58.6,3.58,3.58q-.15,136.43,0,272.84c0,3-.6,3.59-3.58,3.58Q668,739.82,599.5,739.92Zm-1.44-203.59c-4.92-4.48-10.77-7.66-16.29-11.27q-32.64-21.34-65.38-42.53c-5.6-3.63-11.32-7.08-17.68-11,0,15.53,0,30,0,44.43,0,2.31,1.5,3.11,3,4.11,7.65,5,15.19,10.1,23,14.82a6.36,6.36,0,0,1,3.52,6.33c-.15,13.14-.09,26.28-.11,39.42-6.26,6.28-14.2,10.15-21.55,14.83-5.35,3.41-8.58,6.56-8.46,14.08.63,37.92.31,75.85.37,113.77,0,1.37-.87,3.2.88,4s2.77-.72,4-1.51c8.6-5.63,17.12-11.38,25.73-17q34.53-22.51,69.13-44.95l99.77,64.6c.1-2.24.23-3.67.23-5.11,0-16.15-.14-32.3.07-48.45a7.4,7.4,0,0,0-3.87-7.16c-14.5-9.34-28.66-19.24-43.47-28.06-5.8-3.45-7.87-7.3-6.91-13.49.09-.56.07-1.14.13-2.38l53.73,34.81v-94.4c-9.36,6.3-18.59,11.4-26.8,18-3.69-1.18-6.75-3.42-9.72-5.8,9.86-6.34,19.52-13,29.65-18.9,5.55-3.22,7.83-6.86,7.27-13.42-.72-8.35-.18-16.8-.18-26.16-8.07,5.23-15.24,9.89-22.43,14.53-7.38,4.76-14.75,9.55-22.19,14.21-.94.58-2.38,2.59-3.47,0-1.57-3.72.38-9.42,3.87-11.65,13.79-8.85,27.52-17.79,41.38-26.51a5.31,5.31,0,0,0,2.9-5.17c-.09-8.82,0-17.65,0-26.47,0-4.17-1.4-4.93-5-2.58-13.76,8.9-27.47,17.9-41.21,26.84-9,5.86-17.86,12-26.88,17.83S606.91,530.36,598.06,536.33Z" transform="translate(-460 -460)"/><path class="cls-2" d="M697.85,600v58.62l-53.73-34.81c-.06,1.24,0,1.82-.13,2.38-1,6.19,1.11,10,6.91,13.49,14.81,8.82,29,18.72,43.47,28.06a7.4,7.4,0,0,1,3.87,7.16c-.21,16.15-.07,32.3-.07,48.45,0,1.44-.13,2.87-.23,5.11l-99.77-64.6q.09-55.5.17-111c0-5.29-.19-10.59-.29-15.88l-.09.08a11.43,11.43,0,0,1,5,1.95c5.64,3.75,11.37,7.36,17.07,11l41.31,26.41c3,2.4,6,4.64,9.72,5.82A184.54,184.54,0,0,0,697.85,600Z" transform="translate(-460 -460)"/><path class="cls-3" d="M598.05,537c.1,5.29.3,10.59.29,15.88q0,55.49-.17,111Q563.6,686.33,529,708.81c-8.61,5.61-17.13,11.36-25.73,17-1.19.79-2.34,2.3-4,1.51s-.88-2.67-.88-4c-.06-37.92.26-75.85-.37-113.77-.12-7.52,3.11-10.67,8.46-14.08,7.35-4.68,15.29-8.55,21.55-14.83,4.37-.88,7.4-4.12,11-6.38,3.38-2.13,4.26-1.29,4.24,2.36-.06,10.3,0,20.61,0,30.91,0,9.64,0,19.28,0,28.92,0,1.76.26,4.83,2.58,3,3.15-2.51,7.63-3.9,7.44-10.06-.58-19.59-.13-39.21-.32-58.82,0-3.94,1.21-6.27,4.6-8.35,8.9-5.47,17.34-11.71,26.35-17C588.65,542.43,592.58,538.35,598.05,537Z" transform="translate(-460 -460)"/><path class="cls-2" d="M598.05,537c-5.47,1.36-9.4,5.44-14.06,8.17-9,5.29-17.45,11.53-26.35,17-3.39,2.08-4.64,4.41-4.6,8.35.19,19.61-.26,39.23.32,58.82.19,6.16-4.29,7.55-7.44,10.06-2.32,1.84-2.57-1.23-2.58-3,0-9.64,0-19.28,0-28.92,0-10.3-.08-20.61,0-30.91,0-3.65-.86-4.49-4.24-2.36-3.56,2.26-6.59,5.5-11,6.38,0-13.14,0-26.28.11-39.42a6.36,6.36,0,0,0-3.52-6.33c-7.8-4.72-15.34-9.86-23-14.82-1.54-1-3-1.8-3-4.11.08-14.45,0-28.9,0-44.43,6.36,4,12.08,7.42,17.68,11q32.73,21.21,65.38,42.53c5.52,3.61,11.37,6.79,16.29,11.27a.76.76,0,0,0-.1.74Z" transform="translate(-460 -460)"/><path class="cls-3" d="M598,537.07a.76.76,0,0,1,.1-.74c8.85-6,18-11.53,26.94-17.31s17.86-12,26.88-17.83c13.74-8.94,27.45-17.94,41.21-26.84,3.62-2.35,5-1.59,5,2.58,0,8.82-.07,17.65,0,26.47a5.31,5.31,0,0,1-2.9,5.17c-13.86,8.72-27.59,17.66-41.38,26.51-3.49,2.23-5.44,7.93-3.87,11.65,1.09,2.58,2.53.57,3.47,0,7.44-4.66,14.81-9.45,22.19-14.21,7.19-4.64,14.36-9.3,22.43-14.53,0,9.36-.54,17.81.18,26.16.56,6.56-1.72,10.2-7.27,13.42-10.13,5.88-19.79,12.56-29.65,18.89L620,550c-5.7-3.65-11.43-7.26-17.07-11A11.43,11.43,0,0,0,598,537.07Z" transform="translate(-460 -460)"/><path class="cls-3" d="M697.85,600a184.54,184.54,0,0,1-26.8-17.74c8.21-6.64,17.44-11.74,26.8-18Z" transform="translate(-460 -460)"/></svg>