<svg id="Layer_1" data-name="Layer 1" xmlns="http://www.w3.org/2000/svg" viewBox="0 0 993 368.25"><defs><style>.cls-1{fill:#fefefe;}.cls-2{fill:#d3062e;}</style></defs><path class="cls-1" d="M600.5,784.18q-246.53,0-493.06.07c-2.81,0-3.44-.63-3.44-3.44q.12-180.69,0-361.37c0-2.81.63-3.44,3.44-3.44q493.06.11,986.12,0c2.81,0,3.44.63,3.44,3.44q-.12,180.69,0,361.37c0,2.81-.63,3.44-3.44,3.44Q847,784.13,600.5,784.18ZM452.43,464c-1.25-.06-2.49-.17-3.73-.17q-141.58,0-283.17-.09c-3.67,0-4.46,1-4.46,4.53q.17,141,0,282c0,3.62.92,4.51,4.52,4.5q141.59-.15,283.17-.09c1.23,0,2.47-.16,3.7-.25,1.24.08,2.48.24,3.72.24q141.72,0,283.46,0c1.23,0,2.47-.16,3.71-.24,1.36.09,2.72.25,4.08.25q141.38,0,282.77.11c3.87,0,4.63-1,4.63-4.72q-.16-140.79,0-281.59c0-3.6-.61-4.76-4.57-4.75q-141.57.19-283.14.11c-1.24,0-2.48.11-3.73.17s-2.23-.17-3.35-.17q-142.12,0-284.25,0C454.66,463.85,453.54,464,452.43,464Z" transform="translate(-104 -416)"/><path d="M743.35,754.44c-1.24.08-2.48.24-3.71.24q-141.74,0-283.46,0c-1.24,0-2.48-.16-3.71-.24,0-1.74,0-3.49,0-5.23V464c1.11-.06,2.23-.17,3.35-.17q142.13,0,284.25,0c1.12,0,2.24.11,3.35.17Zm-145.5-226c-25.59,0-51.18.05-76.77-.07-3.13,0-4.3.48-4.2,4,.28,10.34.22,20.69,0,31-.06,3,.62,4,3.82,4,16-.17,32,0,47.94-.16,3.41,0,4.31.82,4.3,4.27-.13,38.27,0,76.54-.16,114.8,0,3.14.8,3.89,3.89,3.85q21.34-.27,42.69,0c3.18,0,3.84-.91,3.84-4q-.16-56.83-.08-113.68c0-5.21,0-5.21,5-5.21,15.6,0,31.21-.12,46.81.1,3.47,0,4.06-1,4-4.17q-.3-15.51,0-31c.07-3.23-1-3.81-4-3.8C649.28,528.46,623.57,528.41,597.85,528.41Z" transform="translate(-104 -416)"/><path class="cls-2" d="M452.43,464V749.21c0,1.74,0,3.49,0,5.23-1.24.09-2.48.25-3.71.25q-141.58,0-283.17.09c-3.6,0-4.52-.88-4.52-4.5q.17-141,0-282c0-3.56.79-4.54,4.46-4.53q141.59.17,283.17.09C449.94,463.85,451.18,464,452.43,464ZM226,594.75q0,31.23,0,62.45a6.31,6.31,0,0,0,2.09,5.24c9.39,8.57,18.69,17.25,28,25.94a5.37,5.37,0,0,0,4,1.66q46.81-.06,93.63,0a5.4,5.4,0,0,0,4-1.58Q371.79,675.16,386.1,662a5.16,5.16,0,0,0,1.74-4.26q0-63,0-126c0-2.6-.7-3.38-3.34-3.36-14.11.12-28.22.19-42.32,0-3.65-.06-4.82.68-4.8,4.62.17,36,.1,72,.1,108.06,0,4.92-5.22,10.08-10.18,10.09H286.5c-5.22,0-10.26-5.07-10.26-10.32q0-54.42.06-108.82c0-2.69-.53-3.65-3.46-3.62q-21.72.24-43.44,0c-2.9,0-3.5.87-3.49,3.59C226,552.87,226,573.81,226,594.75Z" transform="translate(-104 -416)"/><path class="cls-2" d="M743.35,754.44l0-290.42c1.25-.06,2.49-.17,3.73-.17q141.57,0,283.14-.11c4,0,4.58,1.15,4.57,4.75q-.15,140.79,0,281.59c0,3.7-.76,4.72-4.63,4.72q-141.39-.19-282.77-.11C746.07,754.69,744.71,754.53,743.35,754.44Zm64.89-145.37c0,25.81,0,51.62-.06,77.43,0,2.67.49,3.62,3.44,3.59q21.72-.26,43.45,0c2.91,0,3.51-.88,3.48-3.59-.14-12.22.05-24.44-.14-36.66,0-3.2.64-4.17,4.05-4.15,24.85.17,49.7.06,74.55.13a7.89,7.89,0,0,0,6-2.27Q955.23,632,967.75,620.7a6.58,6.58,0,0,0,2.36-5.49q-.12-28.07,0-56.11a7,7,0,0,0-2.63-5.76Q955.29,542.29,943.31,531a8.75,8.75,0,0,0-6.61-2.64q-62.19.12-124.38,0c-3.22,0-4.19.66-4.16,4C808.31,557.94,808.24,583.5,808.24,609.07Z" transform="translate(-104 -416)"/><path class="cls-1" d="M597.85,528.41c25.72,0,51.43.05,77.15-.07,3,0,4.06.57,4,3.8q-.32,15.51,0,31c.06,3.14-.53,4.22-4,4.17-15.6-.22-31.21-.1-46.81-.1-5,0-5,0-5,5.21q0,56.84.08,113.68c0,3-.66,4-3.84,4q-21.35-.27-42.69,0c-3.09,0-3.9-.71-3.89-3.85.12-38.26,0-76.53.16-114.8,0-3.45-.89-4.31-4.3-4.27-16,.19-32,0-47.94.16-3.2,0-3.88-.92-3.82-4,.19-10.35.25-20.7,0-31-.1-3.51,1.07-4,4.2-4C546.67,528.46,572.26,528.41,597.85,528.41Z" transform="translate(-104 -416)"/><path class="cls-1" d="M226,594.75c0-20.94.05-41.88-.06-62.82,0-2.72.59-3.63,3.49-3.59q21.72.23,43.44,0c2.93,0,3.46.93,3.46,3.62q-.14,54.4-.06,108.82c0,5.25,5,10.31,10.26,10.32h40.83c5,0,10.18-5.17,10.18-10.09,0-36,.07-72-.1-108.06,0-3.94,1.15-4.68,4.8-4.62,14.1.22,28.21.15,42.32,0,2.64,0,3.35.76,3.34,3.36q-.11,63,0,126A5.16,5.16,0,0,1,386.1,662q-14.33,13.15-28.52,26.47a5.4,5.4,0,0,1-4,1.58Q306.78,690,260,690a5.37,5.37,0,0,1-4-1.66c-9.3-8.69-18.6-17.37-28-25.94a6.31,6.31,0,0,1-2.09-5.24Q226,626,226,594.75Z" transform="translate(-104 -416)"/><path class="cls-1" d="M808.24,609.07c0-25.57.07-51.13-.08-76.69,0-3.39.94-4.06,4.16-4q62.19.18,124.38,0a8.75,8.75,0,0,1,6.61,2.64q12,11.31,24.19,22.35a7,7,0,0,1,2.63,5.76q-.17,28,0,56.11a6.58,6.58,0,0,1-2.36,5.49Q955.24,632,943,643.54a7.89,7.89,0,0,1-6,2.27c-24.85-.07-49.7,0-74.55-.13-3.41,0-4.1,1-4.05,4.15.19,12.22,0,24.44.14,36.66,0,2.71-.57,3.63-3.48,3.59q-21.72-.23-43.45,0c-3,0-3.45-.92-3.44-3.59C808.28,660.69,808.24,634.88,808.24,609.07ZM886,607c8.12,0,16.24,0,24.36,0,3.89,0,9.41-5.47,9.43-9.34q.06-10.47,0-20.95c0-3.81-5.6-9.38-9.42-9.38-16.24,0-32.47,0-48.71-.06-2.35,0-3.26.5-3.22,3.08q.21,16.83,0,33.67c0,2.58.89,3.07,3.21,3C869.76,607,877.88,607,886,607Z" transform="translate(-104 -416)"/><path class="cls-2" d="M886,607c-8.11,0-16.23-.07-24.35.05-2.32,0-3.25-.46-3.21-3q.21-16.83,0-33.67c0-2.58.87-3.09,3.22-3.08,16.24.09,32.47,0,48.71.06,3.82,0,9.4,5.57,9.42,9.38q.06,10.49,0,20.95c0,3.87-5.54,9.33-9.43,9.34C902.23,607.05,894.11,607,886,607Z" transform="translate(-104 -416)"/></svg>